<svg id="visual" viewBox="0 0 900 600" width="900" height="600" xmlns="http://www.w3.org/2000/svg" xmlns:xlink="http://www.w3.org/1999/xlink" version="1.1"><rect x="0" y="0" width="900" height="600" fill="#001220"></rect><defs><linearGradient id="grad1_0" x1="33.3%" y1="0%" x2="100%" y2="100%"><stop offset="20%" stop-color="#001220" stop-opacity="1"></stop><stop offset="80%" stop-color="#001220" stop-opacity="1"></stop></linearGradient></defs><defs><linearGradient id="grad2_0" x1="0%" y1="0%" x2="66.7%" y2="100%"><stop offset="20%" stop-color="#001220" stop-opacity="1"></stop><stop offset="80%" stop-color="#001220" stop-opacity="1"></stop></linearGradient></defs><g transform="translate(900, 0)"><path d="M0 486.7C-33.5 445.3 -67 403.8 -105.1 392.2C-143.2 380.6 -186 398.9 -230 398.4C-274 397.9 -319.3 378.5 -344.2 344.2C-369 309.8 -373.4 260.4 -380.2 219.5C-387 178.6 -396.2 146.2 -414.4 111C-432.5 75.9 -459.6 37.9 -486.7 0L0 0Z" fill="#FBAE3C"></path></g><g transform="translate(0, 600)"><path d="M0 -486.7C45.8 -490.9 91.5 -495.1 126 -470.2C160.4 -445.2 183.6 -391 205 -355.1C226.4 -319.1 246.1 -301.4 288.5 -288.5C330.9 -275.6 395.9 -267.7 407 -235C418.1 -202.3 375.3 -145 379.6 -101.7C383.9 -58.4 435.3 -29.2 486.7 0L0 0Z" fill="#FBAE3C"></path></g></svg>
